<?xml version="1.0" standalone="no"?>
<!DOCTYPE svg PUBLIC "-//W3C//DTD SVG 20010904//EN"
 "http://www.w3.org/TR/2001/REC-SVG-20010904/DTD/svg10.dtd">
<svg version="1.0" xmlns="http://www.w3.org/2000/svg"
 width="1682.000000pt" height="1682.000000pt" viewBox="0 0 1682.000000 1682.000000"
 preserveAspectRatio="xMidYMid meet">
<metadata>
Created by potrace 1.14, written by Peter Selinger 2001-2017
</metadata>
<g transform="translate(0.000000,1682.000000) scale(0.100000,-0.100000)"
fill="#000000" stroke="none">
<path d="M4268 12320 c-15 -15 -24 -30 -21 -34 4 -3 2 -6 -3 -6 -5 0 -11 -13
-12 -30 -1 -16 3 -30 8 -30 6 0 9 -4 6 -9 -4 -5 0 -12 6 -14 9 -4 9 -6 1 -6
-6 -1 -9 -10 -6 -21 5 -21 -17 -80 -30 -80 -5 0 -5 5 -1 12 4 7 3 8 -4 4 -7
-4 -12 -14 -12 -22 0 -8 -7 -14 -15 -14 -8 0 -15 -5 -15 -11 0 -5 -4 -7 -10
-4 -5 3 -10 1 -10 -4 0 -6 -3 -10 -7 -10 -20 3 -34 -2 -28 -10 3 -6 -3 -14
-12 -20 -10 -6 -12 -11 -5 -11 23 0 -20 -62 -48 -68 -8 -2 -18 -9 -22 -15 -4
-7 -8 -8 -8 -4 0 14 -60 -26 -76 -50 -8 -13 -21 -23 -30 -23 -8 0 -13 -4 -10
-9 4 -5 -2 -7 -13 -4 -10 3 -22 0 -25 -6 -5 -8 -13 -8 -26 -1 -13 7 -21 7 -25
-1 -4 -6 -14 -8 -22 -5 -9 4 -11 2 -7 -5 4 -7 1 -10 -7 -7 -8 3 -13 11 -11 17
1 6 -3 11 -10 11 -6 0 -9 3 -5 6 3 4 0 22 -8 40 -19 45 -19 46 -5 54 16 10 14
140 -2 140 -14 0 -9 16 12 40 22 26 27 45 8 34 -10 -6 -10 -5 -1 8 11 13 9 15
-15 14 -16 -1 -26 -6 -24 -13 1 -7 -2 -13 -6 -13 -5 0 -7 -14 -6 -30 1 -19 -4
-34 -14 -40 -10 -5 -13 -10 -8 -10 5 0 2 -8 -5 -17 -12 -15 -12 -16 1 -8 13 8
13 7 1 -9 -10 -11 -11 -20 -4 -24 5 -4 13 -20 16 -37 4 -26 4 -28 -8 -12 -9
12 -14 14 -17 6 -3 -9 -12 -10 -36 -1 -18 6 -32 7 -32 2 0 -4 -8 -7 -17 -5
-20 3 -66 -42 -57 -56 3 -5 -1 -9 -8 -9 -11 0 -11 -2 0 -9 7 -4 14 -17 15 -29
0 -12 3 -19 6 -17 2 3 9 -5 16 -18 6 -12 16 -21 22 -20 6 1 14 -5 18 -15 3 -9
3 -13 -1 -10 -3 4 -17 -5 -30 -19 -13 -14 -24 -22 -24 -18 0 5 -6 1 -13 -9
-13 -17 -14 -17 -25 10 -6 16 -13 36 -14 44 -2 8 -9 21 -17 29 -8 9 -9 17 -4
18 6 2 8 15 5 28 -2 14 -9 22 -14 19 -6 -4 -5 3 1 15 10 17 9 21 -3 21 -9 0
-20 9 -26 20 -6 11 -15 20 -21 20 -6 0 -7 -6 -3 -12 6 -10 4 -10 -8 0 -18 14
-48 6 -48 -13 0 -8 -7 -21 -16 -29 -8 -9 -11 -16 -6 -16 5 0 7 -11 4 -25 -2
-14 0 -25 5 -25 8 0 13 -19 15 -60 1 -8 6 -18 12 -22 7 -5 6 -8 -3 -8 -11 0
-11 -3 -1 -15 9 -11 9 -15 1 -15 -7 0 -10 -4 -7 -9 7 -11 -36 -61 -52 -61 -7
0 -10 -5 -6 -11 4 -8 -1 -9 -17 -4 -13 4 -25 12 -27 16 -2 5 -10 9 -18 9 -9 0
-13 4 -10 9 3 5 -8 11 -24 13 -21 3 -30 0 -30 -10 0 -8 -6 -12 -15 -8 -13 5
-20 -5 -16 -26 0 -5 -6 -8 -15 -8 -8 0 -12 -5 -9 -11 4 -5 -1 -20 -12 -31 -12
-14 -13 -19 -3 -13 8 4 4 -4 -10 -20 -14 -16 -18 -24 -10 -20 13 8 13 7 0 -9
-8 -10 -25 -22 -38 -27 -13 -5 -21 -12 -18 -17 2 -4 -13 -7 -35 -6 -21 0 -39
-3 -39 -8 0 -4 -7 -8 -15 -8 -9 0 -18 -7 -21 -15 -4 -8 -10 -13 -14 -10 -5 3
-7 -2 -6 -12 3 -21 -31 -56 -46 -47 -7 4 -8 3 -4 -4 5 -8 -2 -12 -18 -12 -16
0 -26 -6 -26 -15 0 -8 -6 -12 -14 -9 -8 3 -17 0 -21 -5 -3 -6 -11 -8 -17 -5
-6 4 -8 3 -5 -3 4 -6 -7 -22 -23 -37 -17 -15 -30 -21 -30 -14 0 7 -6 4 -12 -7
-15 -28 -55 -65 -62 -58 -3 4 -6 -2 -6 -12 0 -10 -3 -16 -6 -12 -3 3 -19 -8
-35 -24 -29 -30 -45 -38 -33 -16 4 6 -3 2 -15 -10 -12 -12 -28 -20 -36 -17
-10 4 -15 0 -15 -12 0 -9 -3 -15 -6 -11 -3 3 -16 -3 -28 -14 -11 -11 -29 -18
-38 -15 -10 2 -16 0 -12 -5 3 -5 1 -9 -5 -9 -5 0 -12 6 -14 13 -4 9 -6 9 -6
-1 -1 -10 -6 -10 -21 -2 -16 9 -20 8 -20 -6 0 -10 -5 -14 -16 -10 -8 3 -12 2
-9 -4 3 -6 2 -10 -3 -10 -5 0 -8 -11 -7 -25 2 -14 -1 -25 -7 -25 -6 0 -5 -6 2
-15 7 -8 10 -15 6 -15 -3 0 -1 -11 4 -25 7 -18 6 -24 -3 -22 -7 1 -11 -4 -9
-11 1 -6 -4 -11 -10 -10 -7 2 -12 -3 -10 -9 1 -7 -2 -13 -8 -13 -5 0 -10 -7
-10 -15 0 -9 -7 -18 -15 -21 -8 -4 -13 -10 -10 -14 3 -4 -2 -11 -11 -14 -9 -3
-14 -13 -11 -21 4 -10 1 -12 -10 -8 -11 4 -14 2 -9 -5 4 -6 -2 -17 -14 -24
-11 -7 -20 -18 -20 -25 0 -7 -9 -22 -20 -33 -11 -11 -20 -22 -20 -25 0 -3 0
-11 0 -19 0 -9 -9 -13 -25 -11 -14 1 -25 -1 -25 -6 0 -4 -9 -6 -20 -4 -11 2
-20 0 -20 -6 0 -5 -7 -9 -16 -9 -9 0 -23 -8 -31 -17 -8 -10 -11 -12 -7 -4 5 9
3 12 -4 7 -7 -4 -12 -13 -12 -21 0 -7 -7 -21 -15 -29 -17 -16 -17 -46 0 -58 6
-5 5 -8 -2 -8 -7 0 -11 -12 -10 -30 1 -16 5 -30 9 -30 8 0 4 -27 -5 -36 -3 -4
-2 -15 4 -25 6 -13 6 -19 -1 -19 -5 0 -10 -7 -10 -16 0 -8 -4 -12 -10 -9 -5 3
-7 0 -4 -8 3 -8 -2 -22 -11 -31 -12 -12 -13 -16 -3 -16 9 -1 7 -5 -4 -14 -10
-7 -15 -16 -11 -19 3 -4 1 -7 -6 -7 -7 0 -10 -3 -8 -7 2 -5 -4 -16 -15 -25
-10 -10 -18 -15 -18 -11 0 4 -7 -3 -16 -16 -11 -15 -20 -19 -26 -13 -6 6 -17
8 -24 5 -7 -3 -21 2 -29 11 -11 11 -22 13 -33 7 -9 -5 -21 -9 -25 -10 -15 -1
-34 -26 -29 -40 2 -7 -2 -17 -9 -22 -10 -6 -10 -9 -2 -9 7 0 10 -7 7 -15 -4
-8 -11 -12 -18 -8 -8 5 -8 3 0 -8 6 -8 10 -22 9 -31 -2 -10 3 -18 11 -18 8 0
14 -5 14 -11 0 -6 7 -9 15 -5 8 3 15 1 15 -5 0 -6 7 -9 15 -5 12 4 15 -4 15
-44 0 -28 -4 -50 -9 -50 -5 0 -8 -8 -7 -17 2 -10 -4 -24 -11 -32 -11 -10 -11
-16 -3 -21 8 -5 7 -9 -4 -13 -9 -4 -16 -13 -16 -20 0 -8 -16 -30 -36 -51 -19
-20 -32 -41 -29 -46 3 -6 -1 -10 -9 -10 -10 0 -13 -6 -9 -17 4 -11 3 -14 -5
-9 -7 4 -12 1 -12 -8 0 -9 -5 -16 -11 -16 -5 0 -7 -4 -4 -10 3 -5 1 -10 -5
-10 -6 0 -8 -4 -5 -10 3 -5 -1 -10 -10 -10 -9 0 -14 -4 -11 -9 3 -5 -1 -25 -9
-45 -8 -20 -13 -36 -9 -36 3 0 -2 -7 -10 -16 -9 -8 -14 -20 -11 -25 4 -5 2 -9
-3 -9 -6 0 -8 -9 -5 -19 3 -10 0 -28 -6 -40 -8 -15 -9 -21 -1 -21 6 0 8 -5 3
-12 -4 -7 -8 -35 -9 -63 -2 -74 -13 -150 -23 -153 -5 -1 -7 -16 -5 -32 2 -17
-1 -30 -7 -30 -6 0 -7 -4 -4 -10 3 -5 0 -10 -7 -10 -9 0 -9 -3 2 -10 11 -7 11
-10 2 -10 -7 0 -10 -4 -7 -10 3 -5 1 -10 -6 -10 -9 0 -9 -3 0 -14 7 -9 8 -17
2 -20 -5 -3 -8 -14 -6 -24 1 -9 -1 -27 -6 -39 -5 -14 -4 -23 4 -27 9 -3 9 -5
0 -5 -7 -1 -13 -12 -13 -26 0 -14 -6 -25 -12 -25 -9 0 -8 -4 2 -10 8 -5 10
-10 5 -10 -6 0 -12 -9 -13 -20 -4 -44 -6 -50 -15 -50 -5 0 -6 -7 -3 -16 4 -10
2 -13 -6 -8 -8 5 -9 2 -5 -10 4 -9 3 -15 -2 -12 -11 7 -23 -22 -16 -35 4 -5
-1 -6 -9 -3 -11 4 -16 0 -16 -14 0 -11 -6 -27 -13 -34 -8 -7 -13 -21 -11 -31
1 -9 -1 -15 -6 -12 -4 3 -10 -6 -12 -20 -3 -15 -1 -25 6 -25 7 0 7 -3 1 -8
-12 -9 -13 -32 -1 -51 7 -11 6 -12 -5 -6 -11 7 -12 6 -3 -6 5 -8 10 -21 9 -29
-1 -8 3 -23 8 -34 7 -13 6 -16 -3 -11 -9 6 -9 2 -1 -14 7 -11 9 -21 5 -21 -3
0 -1 -6 5 -13 6 -8 8 -17 4 -21 -4 -4 -3 -10 2 -14 15 -11 39 -56 25 -47 -9 6
-9 2 -1 -14 6 -11 13 -36 14 -56 2 -19 6 -38 10 -41 4 -4 2 -13 -4 -21 -6 -7
-9 -24 -7 -38 3 -13 1 -22 -3 -19 -5 3 -9 2 -10 -3 -1 -10 -7 -53 -12 -73 -1
-8 -7 -21 -11 -29 -7 -10 -6 -12 4 -6 10 6 11 4 4 -6 -15 -25 -25 -117 -12
-125 4 -2 5 -14 3 -25 -2 -11 2 -22 9 -25 7 -3 12 -16 10 -30 -1 -13 2 -24 7
-24 4 0 6 -7 3 -15 -4 -9 0 -15 7 -15 11 0 11 -3 -1 -10 -12 -8 -12 -10 -1
-10 8 0 11 -3 8 -6 -3 -4 -1 -16 5 -28 7 -11 11 -29 9 -38 -1 -10 3 -18 9 -18
8 0 8 -6 0 -20 -8 -15 -8 -20 1 -20 8 0 8 -4 -1 -15 -10 -12 -10 -15 0 -15 10
0 10 -3 0 -15 -10 -12 -10 -15 0 -15 10 0 10 -3 0 -15 -10 -12 -10 -15 1 -15
9 0 10 -3 3 -8 -5 -4 -10 -22 -9 -39 0 -18 -3 -33 -8 -33 -4 0 -6 -4 -2 -9 3
-5 1 -12 -5 -16 -6 -4 -8 -11 -5 -16 4 -5 2 -9 -3 -9 -5 0 -8 -14 -7 -30 2
-23 0 -28 -10 -20 -9 8 -12 4 -10 -15 2 -14 -1 -25 -6 -25 -6 0 -7 -4 -4 -10
3 -5 1 -18 -5 -29 -5 -11 -6 -22 -2 -25 5 -3 8 -21 7 -40 -1 -21 2 -33 8 -29
5 3 7 0 5 -8 -3 -8 2 -23 11 -33 9 -11 10 -16 4 -12 -7 4 -13 2 -13 -3 0 -6 5
-11 12 -11 6 0 8 -3 5 -7 -4 -3 -1 -16 6 -27 17 -25 36 -97 40 -148 1 -10 5
-18 9 -18 3 0 7 -8 7 -17 1 -10 3 -36 5 -58 3 -22 5 -44 5 -48 1 -5 5 -6 10
-3 5 4 8 -5 6 -19 -1 -14 1 -25 4 -25 3 0 11 -11 18 -25 6 -14 7 -22 2 -19
-12 7 13 -49 26 -58 5 -4 6 -8 1 -8 -5 0 -3 -7 4 -15 6 -8 9 -19 5 -25 -3 -5
1 -13 9 -16 9 -3 13 -10 10 -15 -3 -5 0 -9 5 -9 6 0 11 -7 11 -15 0 -8 5 -15
11 -15 5 0 8 -4 4 -9 -3 -5 -1 -12 5 -16 6 -4 7 -11 4 -17 -4 -6 -2 -8 3 -5
10 7 26 -16 28 -39 0 -6 8 -19 18 -28 16 -16 21 -30 18 -49 -1 -5 3 -6 8 -2 6
3 13 -6 17 -20 3 -14 10 -25 15 -25 5 0 9 -9 9 -19 0 -11 5 -21 11 -23 5 -2
12 -12 13 -23 2 -11 9 -19 15 -18 6 2 10 0 9 -5 -4 -13 13 -52 23 -52 5 0 9
-7 9 -15 0 -9 7 -18 15 -21 8 -4 12 -10 9 -15 -3 -5 -1 -9 4 -9 5 0 14 -12 20
-26 7 -14 17 -22 23 -18 8 4 9 0 4 -15 -4 -15 -2 -21 8 -21 13 0 31 -33 28
-52 -1 -5 4 -7 9 -5 6 1 18 -11 28 -28 9 -16 25 -37 34 -46 10 -9 15 -19 11
-22 -3 -4 2 -9 11 -13 9 -3 16 -12 16 -20 0 -8 5 -14 10 -14 6 0 10 -7 10 -15
0 -8 5 -15 10 -15 6 0 10 -7 10 -16 0 -8 4 -12 10 -9 5 3 7 0 4 -8 -3 -8 2
-17 10 -20 9 -4 16 -13 16 -22 0 -8 5 -15 10 -15 6 0 10 -7 10 -15 0 -8 5 -15
10 -15 6 0 10 -7 10 -15 0 -8 5 -15 10 -15 6 0 10 -9 10 -20 0 -11 5 -20 10
-20 6 0 10 -7 10 -16 0 -9 5 -12 13 -8 6 4 9 4 5 -1 -4 -4 -2 -15 5 -23 10
-13 9 -15 -3 -8 -8 4 -6 -1 5 -11 11 -10 21 -25 23 -33 2 -8 9 -22 16 -30 7
-8 16 -23 19 -32 4 -10 12 -18 19 -18 9 0 8 -3 -2 -10 -13 -9 -13 -10 0 -10 9
0 16 -10 17 -22 1 -13 10 -28 19 -35 10 -7 15 -13 10 -13 -4 0 5 -11 19 -25
14 -14 25 -31 25 -38 0 -7 4 -6 10 3 8 13 10 12 10 -3 0 -10 7 -20 15 -23 8
-4 12 -10 9 -15 -3 -5 2 -9 10 -9 9 0 16 -5 16 -10 0 -6 19 -29 43 -51 23 -23
41 -46 39 -50 -1 -5 1 -8 5 -8 21 3 33 -2 33 -14 0 -8 10 -22 22 -33 22 -19
22 -19 8 0 -12 16 -9 15 17 -4 18 -13 33 -28 33 -34 0 -5 3 -7 6 -3 3 3 17 -5
31 -19 13 -13 30 -21 36 -18 7 4 9 4 6 0 -10 -10 62 -77 74 -69 6 3 7 1 3 -6
-7 -10 35 -61 50 -61 11 0 33 -28 27 -34 -4 -3 1 -6 10 -6 10 0 17 -5 17 -11
0 -5 5 -7 10 -4 6 3 10 -1 10 -9 0 -9 5 -16 11 -16 15 0 69 -56 69 -72 0 -9 3
-8 10 2 9 13 10 13 11 0 1 -8 1 -19 0 -23 -1 -5 3 -6 9 -2 5 3 10 1 10 -6 0
-7 3 -10 6 -6 4 3 24 -12 46 -33 21 -22 42 -40 46 -40 13 0 62 -47 55 -54 -3
-3 4 -6 16 -6 12 0 19 -4 16 -10 -3 -5 3 -10 14 -10 12 0 21 -5 21 -11 0 -5 4
-8 9 -4 6 3 14 -3 20 -12 7 -12 10 -13 11 -4 0 8 8 4 21 -10 11 -13 17 -18 14
-11 -6 11 -3 11 14 0 12 -7 21 -16 21 -20 0 -5 5 -8 11 -8 6 0 17 -7 26 -15 8
-8 19 -13 24 -10 5 4 9 1 9 -5 0 -6 4 -9 9 -5 5 3 16 -2 24 -10 9 -8 22 -15
31 -15 8 0 18 -5 21 -10 4 -7 407 -10 1205 -10 1184 0 1200 1 1210 20 6 11 17
20 25 20 8 0 15 4 15 8 0 10 63 47 74 44 5 -2 3 5 -5 14 -12 16 -12 17 4 11
11 -4 20 -1 23 8 4 8 11 12 17 8 6 -4 8 0 4 9 -4 12 -1 14 14 11 11 -3 19 -1
17 4 -2 5 12 22 30 37 18 16 29 33 25 39 -3 7 -3 9 1 5 9 -8 57 32 51 42 -6
10 42 50 51 42 4 -4 4 1 1 11 -4 10 -3 16 1 13 5 -3 21 11 38 30 54 64 104
114 114 114 5 0 7 7 4 15 -4 9 0 15 10 15 9 0 16 7 16 16 0 8 5 12 10 9 9 -5
15 9 8 18 -2 2 9 15 25 29 15 14 27 29 27 33 0 4 27 34 60 66 33 32 60 63 60
69 0 5 7 10 16 10 14 0 14 3 4 15 -11 13 -10 14 5 9 11 -5 16 -3 12 2 -3 6 5
23 19 39 14 16 22 35 19 42 -2 8 0 11 5 8 9 -5 12 1 9 21 0 3 8 12 18 20 11 8
13 13 5 14 -8 0 -5 8 8 22 11 12 18 28 16 35 -3 7 0 18 7 25 11 12 14 23 19
73 1 11 8 31 15 44 6 14 10 28 7 33 -3 4 0 8 5 8 6 0 10 3 10 8 -1 4 0 9 1 12
1 3 3 21 5 40 2 19 4 35 5 35 1 0 3 12 4 27 0 14 4 30 8 34 4 4 3 13 -3 21 -6
7 -8 13 -3 13 5 0 8 15 8 32 -1 18 3 39 9 46 6 8 6 12 -3 12 -9 0 -9 4 -2 13
5 6 8 24 6 40 -2 18 1 25 8 21 7 -5 8 -2 3 6 -12 19 -12 80 0 80 6 0 1 7 -9
15 -20 15 -20 15 0 15 14 0 16 2 5 9 -8 5 -15 31 -17 60 -2 34 0 49 8 45 5 -4
2 5 -7 20 -14 20 -14 26 -4 26 11 0 11 2 -1 10 -11 7 -11 10 -2 10 9 0 10 5 2
19 -13 26 -13 34 2 25 8 -5 8 -3 2 7 -5 8 -10 25 -10 39 -3 39 -3 42 -13 36
-5 -4 -7 3 -4 14 3 11 0 20 -6 20 -6 0 -11 7 -11 15 0 8 -4 15 -10 15 -5 0 -9
4 -7 9 1 5 -7 17 -18 27 -11 11 -22 33 -24 49 -1 17 -8 33 -13 36 -6 4 -8 11
-4 17 3 6 1 16 -6 24 -13 13 -20 98 -9 98 4 0 7 13 6 30 0 16 -4 30 -10 30 -5
0 -3 5 5 10 10 6 11 10 3 10 -15 0 -13 21 2 32 6 5 4 8 -5 8 -11 0 -15 13 -15
55 0 30 5 55 10 55 6 0 3 5 -5 10 -13 8 -13 10 2 10 11 0 16 6 13 20 -2 11 1
22 6 25 5 4 7 11 4 16 -4 5 0 9 7 9 10 0 10 2 -1 9 -9 6 -10 11 -2 15 6 4 9
12 5 17 -3 5 0 16 6 24 10 12 10 15 0 15 -7 0 -10 7 -6 16 4 10 2 13 -6 8 -7
-5 -9 0 -6 14 4 12 2 20 -3 16 -5 -3 -9 2 -9 10 0 9 -5 16 -11 16 -5 0 -7 5
-3 12 4 7 3 8 -4 4 -6 -4 -16 4 -23 16 -7 13 -20 30 -31 39 -10 9 -18 22 -18
29 0 7 -7 10 -15 6 -9 -3 -15 0 -15 10 0 8 -11 19 -25 24 -14 5 -25 16 -25 23
0 8 -9 22 -20 32 -11 10 -20 26 -20 37 0 10 -4 18 -10 18 -5 0 -10 7 -10 15 0
8 -9 15 -20 15 -11 0 -20 6 -20 14 0 9 -7 13 -20 11 -11 -2 -20 0 -20 5 0 6
-11 9 -25 8 -14 -1 -25 -5 -25 -8 0 -3 -9 -6 -21 -7 -22 -2 -72 40 -62 51 4 3
-6 6 -20 6 -15 0 -27 5 -27 11 0 5 -4 8 -9 4 -5 -3 -15 0 -23 7 -7 7 -20 14
-28 16 -8 2 -18 8 -21 14 -3 5 -8 9 -10 7 -11 -6 -49 14 -49 26 0 7 -6 15 -12
18 -10 3 -10 7 -1 18 8 10 9 20 3 29 -6 8 -10 25 -10 38 0 25 -23 55 -34 45
-3 -4 -6 1 -6 10 0 10 -7 17 -16 17 -10 0 -14 6 -10 15 3 8 1 15 -4 15 -6 0
-10 6 -10 14 0 11 28 14 142 15 78 1 145 4 150 7 9 6 -9 45 -20 42 -4 -1 -20
4 -37 11 -33 13 -64 46 -97 101 -12 19 -25 37 -28 40 -7 6 -17 30 -18 44 0 5
-4 12 -10 15 -5 3 -34 53 -64 111 -31 58 -81 154 -112 213 l-57 108 38 60 c21
34 43 69 49 79 5 10 37 54 69 98 64 87 126 135 197 153 36 8 46 15 45 30 -1
22 3 20 -64 23 -29 0 -53 -3 -53 -8 0 -5 -5 -5 -12 0 -7 5 -65 9 -128 8 -151
-2 -149 -2 -146 -16 3 -20 17 -39 25 -34 4 3 22 -4 39 -14 29 -18 38 -37 32
-65 -1 -5 -3 -14 -4 -20 -7 -33 -113 -196 -132 -202 -11 -4 -121 201 -127 238
-5 23 4 53 14 49 2 -1 17 3 32 9 16 6 32 9 37 6 13 -8 22 12 16 33 -6 17 -46
26 -46 9 0 -4 -5 -5 -12 -1 -17 11 -228 11 -228 1 0 -5 -5 -5 -12 -1 -21 14
-309 10 -320 -3 -15 -18 -2 -43 23 -43 11 0 37 -12 58 -27 36 -26 101 -109
101 -130 0 -6 4 -13 8 -15 5 -1 31 -43 57 -93 27 -49 66 -121 87 -160 21 -38
52 -97 70 -131 l31 -61 -64 -94 c-94 -138 -158 -221 -198 -257 -38 -33 -101
-61 -143 -64 -32 -3 -37 -6 -35 -26 l1 -22 220 2 c200 3 219 5 222 21 1 9 -2
18 -7 18 -5 1 -18 3 -29 4 -11 1 -24 3 -30 4 -22 3 -50 43 -50 71 0 30 21 81
44 107 22 25 33 39 37 48 2 6 18 31 34 58 31 49 55 61 55 27 0 -11 4 -20 8
-20 5 0 17 -19 28 -42 10 -24 21 -45 24 -48 14 -13 60 -123 60 -143 0 -29 -14
-50 -37 -53 -10 -2 -29 -5 -42 -7 -15 -2 -25 -11 -27 -25 -3 -18 2 -21 43 -24
43 -3 45 -4 28 -18 -17 -13 -18 -13 -11 0 7 13 6 13 -8 -1 -21 -20 -29 -59
-12 -59 7 0 17 -10 22 -22 8 -19 5 -28 -17 -52 -19 -20 -27 -24 -25 -13 1 9 5
20 9 23 4 4 7 12 7 18 0 6 -5 4 -10 -4 -7 -11 -10 -11 -10 -2 0 7 -3 11 -8 8
-4 -2 -8 9 -8 25 -1 17 -4 33 -8 36 -12 13 -65 9 -70 -4 -3 -8 -10 -11 -16 -8
-6 3 -7 -1 -4 -9 3 -9 2 -16 -3 -16 -13 0 -46 -67 -39 -79 4 -6 2 -11 -4 -11
-6 0 -8 -4 -5 -10 3 -5 2 -10 -3 -10 -5 0 -8 -13 -7 -30 1 -16 -2 -30 -8 -30
-5 0 -7 -7 -4 -15 4 -8 1 -17 -5 -21 -7 -4 -6 -9 3 -15 11 -7 11 -9 1 -9 -8 0
-10 -8 -6 -26 5 -19 3 -25 -4 -20 -7 4 -7 -7 3 -33 7 -21 11 -42 8 -45 -4 -3
1 -6 9 -6 9 0 21 -7 28 -15 7 -9 15 -13 18 -10 3 2 13 -5 23 -17 13 -14 19
-16 19 -7 0 11 2 11 10 -1 5 -8 10 -10 10 -4 0 6 14 10 30 9 19 -1 30 3 30 12
0 7 4 13 10 13 5 0 9 3 8 8 0 4 4 18 10 32 6 14 11 22 11 18 1 -7 9 -1 62 47
9 8 25 15 36 15 26 0 76 -49 69 -67 -4 -9 -1 -11 6 -7 8 5 9 2 5 -10 -5 -11
-3 -15 5 -10 7 5 9 2 6 -8 -7 -17 -1 -18 90 -19 34 -1 65 -5 68 -10 3 -5 11
-9 17 -9 8 0 8 3 -1 9 -10 6 -7 10 14 15 15 4 30 3 33 -2 3 -5 14 -8 24 -6 9
1 15 -1 13 -4 -2 -4 6 -16 17 -27 11 -11 16 -13 12 -5 -4 8 2 5 14 -7 11 -12
21 -28 21 -34 0 -7 3 -10 6 -6 7 6 34 -17 34 -29 0 -4 11 -17 24 -29 14 -13
22 -26 18 -30 -4 -4 -1 -5 6 -3 8 2 19 -6 25 -16 7 -11 22 -31 35 -44 12 -13
19 -28 16 -34 -4 -7 -2 -8 4 -4 7 4 12 1 12 -8 0 -8 5 -16 10 -18 6 -2 12 -13
13 -26 0 -12 5 -22 10 -22 4 0 5 -6 0 -12 -13 -23 -14 -50 -1 -43 7 4 4 -1 -6
-9 -11 -9 -15 -16 -9 -16 10 0 9 -53 -2 -70 -3 -4 2 -13 10 -20 7 -6 11 -18 8
-26 -3 -8 0 -21 6 -28 9 -10 9 -16 1 -21 -8 -5 -8 -11 -1 -19 6 -7 8 -16 4
-19 -3 -4 -1 -7 6 -7 7 0 10 -4 7 -9 -3 -4 1 -17 8 -27 10 -13 11 -23 4 -31
-7 -9 -7 -13 2 -13 8 0 11 -9 8 -25 -3 -13 -1 -22 3 -19 5 3 11 -8 15 -23 4
-15 12 -31 18 -35 16 -11 10 -137 -7 -165 -5 -8 -3 -13 4 -13 8 0 8 -4 2 -12
-13 -17 -13 -48 0 -48 6 0 2 -10 -9 -22 -10 -12 -13 -18 -6 -14 6 4 12 3 12
-3 0 -5 -6 -12 -12 -14 -9 -4 -9 -6 -1 -6 12 -1 7 -38 -8 -57 -5 -6 -6 -14 -2
-17 3 -4 -2 -7 -13 -7 -13 0 -15 -3 -6 -8 9 -7 6 -15 -13 -36 -14 -15 -25 -31
-25 -37 0 -5 -7 -9 -15 -9 -8 0 -15 -5 -15 -11 0 -5 6 -7 13 -3 7 4 9 3 4 -2
-5 -5 -12 -9 -15 -9 -12 0 -50 -43 -44 -50 3 -3 -4 -8 -16 -12 -12 -3 -19 -9
-16 -14 5 -8 -3 -11 -22 -8 -4 0 -11 -5 -15 -13 -5 -8 -9 -9 -9 -2 0 7 -7 14
-15 18 -8 3 -14 0 -12 -7 1 -7 -9 -13 -23 -14 -34 -4 -75 -11 -75 -13 0 -2
-10 -4 -23 -5 -17 -2 -22 2 -17 13 5 13 3 13 -13 -1 -10 -9 -21 -14 -24 -11
-11 10 -58 12 -64 2 -3 -5 -12 -7 -20 -4 -8 3 -14 2 -14 -2 0 -4 -18 -7 -40
-8 -22 0 -40 3 -40 7 0 4 -9 5 -20 2 -11 -3 -20 -1 -20 4 0 5 -12 15 -26 21
-14 7 -23 8 -20 3 3 -5 -5 -4 -18 2 -13 7 -23 14 -21 17 2 3 -5 6 -16 6 -10 0
-19 -4 -19 -9 0 -5 -6 -5 -13 1 -7 6 -18 7 -27 2 -9 -5 -25 0 -49 18 -19 15
-31 20 -26 12 8 -13 6 -13 -8 -1 -9 7 -14 18 -10 25 4 6 -1 5 -10 -3 -15 -12
-17 -11 -17 4 0 12 -6 16 -19 12 -12 -3 -22 1 -25 9 -3 8 -15 14 -26 14 -11 0
-20 5 -20 10 0 6 -7 10 -15 10 -8 0 -15 5 -15 10 0 6 -7 10 -15 10 -8 0 -15 4
-15 10 0 5 -3 9 -7 8 -5 -1 -18 3 -29 10 -12 6 -25 8 -29 4 -5 -4 -5 -2 -1 5
3 6 2 14 -4 18 -5 3 -10 1 -10 -5 0 -6 -5 -8 -10 -5 -6 4 -7 11 -4 17 5 7 2 9
-8 6 -8 -3 -19 2 -25 12 -7 9 -22 17 -35 16 -13 -1 -32 6 -42 16 -10 10 -22
15 -26 13 -4 -2 -16 3 -26 13 -29 26 -71 45 -83 38 -7 -5 -8 -1 -5 9 4 9 2 15
-4 13 -6 -2 -18 6 -27 17 -9 11 -13 13 -9 5 5 -8 -6 -4 -23 10 -17 14 -29 28
-26 32 2 4 -4 5 -13 1 -12 -4 -15 -3 -10 5 4 7 1 12 -8 12 -9 0 -23 12 -33 28
-10 15 -30 39 -45 54 -16 14 -28 31 -28 37 0 6 -4 11 -10 11 -5 0 -10 8 -10
17 0 9 -3 13 -7 10 -6 -6 -38 31 -38 43 1 3 -12 17 -27 32 -14 14 -24 29 -21
32 4 3 0 6 -7 6 -7 0 -11 3 -8 6 3 3 -9 21 -28 39 -19 19 -34 41 -34 50 0 9
-5 13 -11 10 -6 -4 -13 2 -16 14 -3 11 -9 18 -14 15 -5 -3 -9 1 -9 9 0 8 -7
20 -15 27 -8 7 -12 16 -9 21 3 5 1 8 -4 7 -6 -2 -10 -1 -9 2 1 5 -25 39 -51
66 -7 8 -10 14 -5 14 4 0 0 7 -11 15 -10 7 -15 18 -11 24 3 6 1 11 -5 11 -6 0
-8 5 -5 10 3 6 1 10 -4 10 -6 0 -11 9 -11 20 0 11 -5 20 -11 20 -5 0 -8 4 -4
9 3 5 -1 15 -8 23 -8 7 -13 21 -11 31 1 9 -2 17 -7 17 -6 0 -7 5 -4 10 3 6 0
10 -9 10 -8 0 -13 8 -12 17 2 10 -3 24 -11 31 -7 8 -11 18 -8 23 4 5 1 9 -4 9
-6 0 -11 9 -11 20 0 11 -4 20 -8 20 -4 0 -8 10 -9 22 -1 11 -6 24 -10 27 -4 3
-10 15 -11 26 -2 11 -8 21 -12 23 -5 2 -7 9 -4 16 3 8 -2 21 -12 30 -9 9 -14
20 -10 23 3 3 -2 12 -12 20 -9 8 -11 12 -4 8 17 -9 15 6 -5 34 -9 14 -11 21
-4 17 6 -4 3 7 -8 25 -11 18 -18 36 -15 41 3 4 0 8 -5 8 -6 0 -11 9 -11 21 0
13 -4 18 -12 13 -7 -4 -8 -3 -4 5 4 6 2 19 -6 28 -11 14 -11 16 2 8 13 -8 13
-6 2 8 -8 9 -11 20 -8 26 3 5 1 11 -5 13 -5 2 -11 18 -11 37 -1 18 -6 35 -12
37 -7 3 -13 18 -14 34 l-2 30 95 0 c92 0 95 1 95 23 0 21 -5 23 -51 24 -70 1
-119 20 -149 56 l-25 31 -1 664 c-1 366 2 679 6 697 4 18 16 42 27 54 25 27
89 49 136 46 44 -2 71 13 58 33 -6 10 -38 14 -115 15 -94 1 -106 3 -106 18 0
10 4 20 10 24 5 3 7 12 4 20 -4 8 -9 13 -14 10 -4 -2 -7 13 -6 34 1 27 5 37
14 33 7 -2 12 -1 10 4 -4 13 25 103 31 99 6 -3 9 23 14 105 1 19 9 41 17 48 8
8 9 11 3 7 -7 -3 -13 -1 -13 4 0 10 14 15 32 12 4 0 5 6 2 14 -4 9 0 15 7 15
11 0 11 2 1 8 -10 7 -9 15 3 40 9 17 17 41 18 52 1 11 5 20 10 20 4 0 5 5 1
12 -5 8 -1 9 12 4 14 -5 16 -4 8 4 -13 13 -7 50 7 50 5 0 9 9 9 19 0 11 5 23
10 26 6 4 8 11 5 16 -4 5 0 9 7 9 10 0 10 2 1 8 -9 6 -8 11 6 22 11 7 17 19
14 26 -3 8 2 17 11 20 9 3 16 10 16 16 0 5 -6 6 -12 2 -7 -4 -2 4 12 17 13 13
28 23 32 21 5 -1 8 3 8 9 0 6 7 8 16 5 8 -3 12 -2 9 4 -3 6 3 10 14 10 12 0
20 6 19 13 -2 6 3 11 10 9 6 -1 12 7 12 18 0 11 7 23 15 26 13 5 13 9 3 22 -8
10 -8 13 -2 9 11 -6 30 36 25 56 -1 5 3 6 8 3 5 -3 15 2 22 11 12 14 12 16 -1
9 -13 -7 -13 -6 0 6 8 7 15 20 15 28 0 8 5 14 12 13 7 -2 10 4 7 12 -4 8 -1
15 5 15 6 0 10 3 10 8 -3 19 2 33 11 27 6 -3 10 0 10 8 0 8 15 22 34 32 19 11
33 23 30 27 -3 4 -1 8 5 8 6 0 25 15 43 32 18 18 36 32 40 31 4 -2 10 6 13 17
4 11 11 18 16 15 5 -4 9 -1 9 5 0 7 7 10 15 7 8 -4 17 -1 21 5 5 7 2 8 -7 3
-10 -6 -11 -5 -3 4 6 7 21 13 33 14 11 1 21 4 21 8 0 4 10 5 22 1 13 -3 19 -1
15 5 -4 7 7 13 28 17 19 4 35 11 35 16 0 6 10 10 23 10 13 0 29 6 36 13 11 10
12 9 6 -3 -7 -13 29 12 45 31 3 3 15 5 27 4 14 -1 19 3 16 12 -3 9 0 11 10 8
8 -4 17 1 21 10 3 9 10 13 16 10 5 -3 10 1 10 10 0 13 4 14 21 4 15 -8 19 -8
15 0 -4 6 -2 11 4 11 6 0 8 5 4 12 -4 6 -3 8 4 4 6 -3 17 0 25 8 8 8 17 12 21
9 3 -3 8 1 12 10 3 9 21 21 40 27 19 6 34 16 34 21 0 6 4 8 9 5 11 -7 42 4 37
13 -2 3 7 7 20 7 14 1 21 -2 18 -8 -4 -6 5 -2 19 7 15 9 31 14 37 10 5 -3 10
-2 10 3 0 12 39 4 59 -12 11 -8 13 -8 7 2 -4 6 -2 12 3 12 6 0 11 -5 11 -11 0
-6 9 -8 20 -4 12 4 27 2 35 -5 10 -8 15 -8 21 1 5 8 3 9 -6 4 -9 -6 -11 -4 -5
4 5 9 11 9 17 3 13 -13 78 27 78 47 0 8 3 11 7 8 3 -4 19 6 34 22 15 16 37 32
48 36 12 4 18 11 15 17 -5 7 -1 9 9 5 9 -3 23 1 32 9 11 12 15 12 15 2 0 -10
2 -10 9 1 5 8 16 11 24 8 9 -3 17 1 20 12 2 10 11 18 20 18 9 0 14 -4 11 -9
-3 -4 2 -5 10 -2 9 3 16 11 16 16 0 7 5 6 14 -1 11 -9 15 -8 20 4 3 9 10 13
16 10 5 -3 10 -1 10 5 0 6 4 9 9 6 5 -4 12 0 14 6 4 10 6 10 6 0 1 -7 6 -10
11 -7 9 5 14 -21 13 -62 -1 -7 3 -13 7 -13 5 0 9 -8 9 -17 0 -40 7 -68 16 -75
6 -5 6 -8 -1 -8 -6 0 -11 -7 -11 -15 0 -8 5 -15 10 -15 5 0 4 -7 -3 -15 -9
-10 -9 -15 -1 -15 6 0 11 -8 11 -19 0 -21 23 -45 33 -34 4 3 7 -1 7 -10 0 -10
6 -17 13 -18 6 0 24 -2 40 -4 19 -3 25 0 20 8 -4 7 0 6 10 -2 15 -12 21 -9 18
12 0 4 2 6 6 6 22 -4 33 2 27 13 -5 7 -2 9 9 5 11 -4 15 -1 12 14 -2 10 0 19
4 19 14 0 1 71 -15 87 -8 9 -13 22 -10 29 3 8 2 14 -2 14 -7 0 -11 16 -14 58
-1 6 -6 12 -11 12 -5 0 -7 18 -5 40 2 23 -1 40 -7 40 -5 0 -3 5 5 10 9 6 11
10 3 10 -7 0 -10 7 -7 15 4 8 10 13 14 10 5 -3 6 4 3 15 -3 11 0 20 6 20 7 0
10 10 7 25 -3 15 0 25 7 25 7 0 6 4 -3 10 -10 6 -11 10 -2 10 6 0 11 3 11 8
-1 4 -1 20 0 35 1 19 5 26 14 21 9 -5 9 -4 0 6 -9 9 -9 19 -2 33 8 14 8 18 0
13 -19 -12 -12 2 16 31 14 15 23 21 18 13 -5 -10 -1 -8 13 4 12 11 22 15 22
10 0 -5 4 -3 8 4 6 8 9 2 9 -18 0 -18 5 -35 12 -40 11 -6 11 -9 0 -13 -8 -3
-4 -6 9 -6 12 -1 22 -7 22 -13 0 -8 3 -9 8 -3 10 15 46 19 37 5 -6 -9 -2 -9
13 -1 17 9 25 7 41 -10 11 -12 24 -18 30 -14 6 3 11 1 11 -6 0 -8 3 -9 13 0 8
6 17 8 20 4 4 -3 7 -1 7 6 0 9 5 9 20 1 11 -6 20 -9 20 -6 0 3 12 -6 27 -20
15 -14 31 -23 37 -21 6 2 20 -4 30 -14 11 -11 15 -19 10 -19 -6 0 -9 -12 -9
-27 1 -16 -3 -36 -8 -47 -6 -12 -5 -16 1 -12 6 4 8 -2 5 -14 -3 -11 -10 -17
-15 -14 -6 4 -7 0 -1 -12 5 -11 8 -31 7 -46 0 -16 3 -28 9 -28 5 0 4 -7 -3
-15 -9 -10 -9 -15 -1 -15 6 0 11 -5 11 -11 0 -12 37 -48 52 -50 4 -1 12 -2 17
-3 5 0 12 -4 16 -7 11 -11 45 2 38 15 -4 6 1 5 10 -3 12 -9 17 -10 17 -2 0 7
3 10 8 8 4 -2 15 4 25 15 9 10 14 18 10 18 -5 0 0 5 9 10 10 6 15 19 13 30 -2
11 2 20 8 20 7 0 6 4 -3 10 -8 5 -10 10 -4 10 7 0 9 11 6 25 -2 14 -8 25 -13
25 -5 0 -8 3 -8 8 3 19 -2 33 -11 27 -5 -3 -10 1 -10 9 0 15 -12 21 -33 17 -5
-1 -6 2 -4 6 3 5 -1 14 -9 21 -9 8 -14 9 -14 2 0 -6 -11 0 -23 14 -13 14 -27
23 -30 19 -11 -10 -8 10 3 27 5 8 10 11 10 5 0 -5 5 -2 11 9 9 15 13 16 20 5
7 -12 9 -12 9 0 0 11 3 11 15 1 12 -10 15 -10 15 0 0 8 3 10 7 7 3 -4 17 0 31
9 13 9 22 12 19 7 -4 -6 9 -10 28 -11 20 -1 45 -6 56 -13 17 -8 20 -8 14 1 -4
7 4 5 17 -4 14 -9 28 -13 31 -9 6 5 8 0 7 -22 0 -6 7 -16 50 -64 24 -27 38
-34 69 -35 22 0 37 -4 34 -9 -3 -5 3 -4 13 2 11 5 26 12 34 16 31 12 60 32 55
37 -3 3 1 8 10 12 9 3 13 2 10 -4 -3 -6 3 -10 15 -10 11 0 23 -6 26 -14 3 -8
12 -12 19 -10 7 3 16 0 20 -5 3 -6 11 -9 16 -6 5 4 9 -1 9 -10 0 -9 5 -13 10
-10 14 9 3 -42 -16 -71 -9 -16 -10 -24 -1 -33 8 -8 8 -11 -1 -11 -7 0 -2 -12
12 -27 14 -15 22 -31 19 -37 -4 -6 1 -5 10 3 13 10 17 10 17 1 0 -9 3 -10 13
-1 8 6 17 8 20 4 4 -3 7 -1 7 6 0 8 7 11 15 7 8 -3 15 0 15 6 0 14 40 49 50
43 4 -3 11 2 14 11 3 8 10 12 16 9 5 -3 10 0 10 7 0 9 3 9 10 -2 7 -11 10 -11
10 -2 0 7 4 11 9 8 12 -8 42 4 37 13 -3 4 4 7 14 8 11 1 22 -3 25 -8 4 -5 11
-7 16 -4 5 4 9 -1 9 -9 0 -9 3 -15 8 -14 4 1 17 -3 28 -10 12 -6 24 -8 28 -5
3 3 6 1 6 -5 0 -7 6 -12 13 -12 13 0 42 -47 39 -62 -1 -5 3 -8 8 -8 6 0 10 -7
10 -15 0 -8 5 -15 10 -15 6 0 10 -7 10 -15 0 -8 5 -15 11 -15 7 0 9 -10 7 -25
-3 -14 -1 -25 3 -25 5 0 9 -5 9 -11 0 -5 -4 -8 -8 -5 -4 2 -7 -8 -6 -22 1 -15
-4 -33 -10 -41 -8 -11 -8 -13 1 -8 9 6 11 -4 9 -33 -2 -24 1 -40 8 -40 6 0 5
-4 -2 -9 -11 -7 -11 -9 2 -14 9 -4 16 -14 16 -23 0 -11 6 -15 19 -11 10 2 26
0 36 -6 13 -7 16 -6 11 2 -4 6 1 14 11 18 10 3 22 13 26 20 5 7 13 10 19 7 7
-5 9 -1 5 9 -4 10 -2 16 5 14 7 -1 17 8 23 21 5 12 13 22 18 22 4 0 5 5 2 10
-3 6 -2 10 4 10 5 0 13 -5 16 -10 4 -6 11 -8 16 -5 5 4 9 -1 9 -9 0 -9 3 -15
8 -14 15 3 63 -22 68 -37 4 -8 12 -15 19 -15 8 0 17 -5 21 -12 4 -7 3 -8 -4
-4 -16 9 -15 4 3 -30 11 -22 12 -30 2 -36 -7 -4 -7 -8 -2 -8 6 0 2 -5 -8 -11
-9 -6 -15 -14 -12 -19 5 -9 -13 -49 -27 -60 -3 -3 -8 -14 -10 -25 -1 -11 -7
-23 -13 -27 -6 -5 -5 -8 3 -8 6 0 12 -9 12 -20 0 -11 5 -20 10 -20 6 0 10 -7
10 -16 0 -8 4 -13 8 -10 11 6 52 -30 52 -46 0 -7 5 -7 14 1 10 8 16 9 21 1 3
-6 11 -8 16 -5 5 4 9 0 9 -7 0 -9 3 -9 8 -2 4 6 19 10 35 9 15 -1 27 2 27 8 0
5 9 7 19 4 14 -3 18 -1 14 9 -3 10 3 14 21 15 14 1 32 2 39 3 6 1 17 -4 22
-12 6 -7 20 -14 33 -15 12 0 22 -5 22 -10 0 -5 9 -7 20 -4 10 3 24 -1 31 -9 6
-8 15 -11 20 -8 5 3 9 1 9 -4 0 -5 7 -9 15 -9 8 0 12 4 9 8 -2 4 0 10 6 14 5
3 10 0 10 -7 0 -9 3 -9 10 2 9 13 11 13 19 0 7 -10 6 -17 -2 -22 -8 -5 -8 -8
-1 -8 6 0 11 -6 11 -12 1 -18 7 -42 13 -48 3 -3 16 -26 29 -52 13 -26 28 -45
32 -42 5 3 9 -3 9 -12 0 -10 3 -14 6 -11 4 4 18 -6 32 -21 13 -15 21 -21 17
-13 -6 10 -4 12 4 7 7 -5 10 -15 6 -24 -3 -9 -3 -14 0 -10 6 6 55 -37 55 -48
0 -3 7 -12 15 -21 8 -8 12 -19 9 -25 -4 -7 -2 -8 4 -4 7 4 12 1 12 -9 0 -9 5
-13 10 -10 9 6 14 -8 11 -28 -1 -5 8 -20 19 -34 11 -14 17 -29 14 -34 -3 -5 0
-9 6 -9 6 0 9 -4 6 -9 -4 -5 0 -12 6 -14 10 -4 10 -6 0 -6 -10 -1 -10 -4 2
-16 8 -8 17 -15 20 -15 6 0 66 -60 66 -66 0 -3 -6 -2 -12 1 -7 4 -4 -1 7 -10
11 -9 19 -21 17 -27 -2 -6 2 -14 9 -18 15 -10 31 -94 18 -98 -5 -2 -6 -8 -3
-13 3 -6 0 -17 -8 -26 -9 -12 -9 -15 0 -9 8 5 12 0 12 -14 0 -11 7 -32 16 -45
9 -14 13 -25 9 -25 -3 0 1 -7 9 -16 17 -17 22 -39 6 -29 -5 3 -2 -9 7 -27 9
-18 22 -45 29 -59 8 -14 11 -29 7 -33 -3 -3 -2 -6 4 -6 10 0 8 -53 -2 -71 -4
-5 0 -9 7 -9 9 0 9 -3 -2 -10 -13 -9 -13 -10 0 -10 13 0 13 -1 0 -10 -8 -5
-15 -13 -16 -17 -2 -21 -18 -43 -30 -43 -8 0 -11 -6 -7 -17 4 -11 3 -14 -5 -9
-7 4 -12 2 -12 -4 0 -6 -5 -8 -12 -4 -8 5 -9 0 -6 -14 4 -12 2 -20 -3 -16 -5
3 -9 -2 -9 -11 0 -10 -5 -13 -12 -9 -8 5 -9 2 -5 -9 4 -10 0 -20 -11 -26 -13
-8 -13 -10 -3 -11 11 0 10 -4 -4 -13 -10 -8 -15 -19 -11 -25 4 -7 2 -12 -4
-12 -6 0 -8 -4 -5 -10 3 -5 0 -10 -7 -10 -9 0 -9 -3 2 -10 8 -5 10 -10 5 -10
-6 0 -12 -11 -13 -26 -1 -14 2 -23 8 -19 5 3 7 0 4 -8 -3 -8 2 -22 11 -30 9
-9 15 -19 15 -22 0 -3 9 -27 21 -53 12 -26 21 -50 21 -54 -1 -5 3 -8 9 -8 6 0
9 -7 5 -15 -3 -9 0 -15 8 -15 7 0 20 -8 27 -17 13 -17 13 -17 -6 -3 -19 14
-19 14 -6 -2 7 -10 20 -18 28 -18 8 0 11 -5 7 -12 -4 -7 -4 -10 1 -6 4 4 14 3
21 -3 8 -7 14 -7 19 1 5 8 11 8 21 -1 11 -9 14 -9 14 1 0 8 3 10 7 7 3 -4 12
-2 20 4 17 15 11 -1 -34 -87 -105 -202 -101 -498 9 -693 56 -98 167 -187 258
-207 14 -3 36 -7 50 -10 51 -11 183 -5 225 10 123 45 211 121 285 244 35 59
40 75 30 87 -18 22 -34 18 -53 -14 -23 -39 -95 -109 -131 -129 -18 -9 -60 -17
-96 -18 -54 -2 -74 3 -115 24 -47 25 -59 35 -105 88 -26 31 -79 145 -85 185
-2 19 -8 52 -12 74 -17 88 -48 80 300 80 197 0 307 4 308 10 2 13 2 12 -5 75
-17 163 -62 268 -155 358 -47 46 -151 113 -151 97 0 -3 -9 -1 -20 5 -10 5 -44
12 -74 14 -49 3 -77 0 -172 -20 -21 -4 -89 -40 -131 -70 -21 -15 -22 -14 -21
8 1 12 6 29 11 36 6 8 5 12 -2 12 -7 0 -9 5 -6 10 4 6 11 7 17 4 7 -4 8 -2 4
5 -7 11 17 44 26 36 2 -3 4 22 4 55 0 33 -2 60 -6 60 -3 0 -7 10 -7 22 -1 13
-7 24 -13 26 -5 2 -10 10 -10 18 0 8 -3 14 -7 14 -5 0 -13 11 -20 25 -8 19 -8
25 0 25 8 0 8 3 2 8 -13 8 -13 22 -1 41 6 10 5 12 -2 7 -8 -5 -11 3 -8 24 2
17 -2 37 -10 45 -11 10 -11 15 -1 18 9 4 9 6 0 6 -7 1 -13 10 -13 20 0 11 -5
23 -10 26 -7 4 -7 11 -2 18 5 7 8 25 7 40 -1 15 2 30 7 33 5 3 3 13 -4 21 -12
15 -16 28 -20 66 -1 9 -6 17 -11 17 -5 0 -4 7 3 15 12 14 7 19 -15 16 -5 -1
-1 6 9 14 14 11 16 15 5 15 -9 0 -10 3 -3 8 6 4 10 15 8 25 -1 9 2 17 7 17 4
0 6 6 3 14 -3 8 4 24 15 35 13 13 16 21 9 21 -9 0 -9 3 1 9 8 5 11 16 8 24 -3
9 1 18 10 21 12 5 13 9 4 20 -7 9 -8 17 -2 20 5 3 8 17 6 31 -1 14 1 25 6 25
5 0 6 6 3 14 -3 8 4 16 17 19 13 4 20 9 17 13 -6 6 50 64 62 64 10 0 40 57 33
64 -3 3 0 6 8 6 8 0 1 9 -14 19 -29 18 -29 18 -55 -6 -15 -14 -26 -29 -25 -34
2 -5 -3 -9 -11 -9 -8 0 -18 -5 -22 -12 -5 -7 -3 -8 6 -3 9 5 11 4 6 -3 -4 -7
-14 -12 -23 -12 -9 0 -13 -3 -10 -7 4 -3 -5 -16 -18 -29 -21 -19 -30 -22 -50
-14 -16 6 -25 6 -25 0 0 -6 -9 -10 -21 -10 -13 0 -18 -4 -13 -12 5 -7 0 -9
-14 -6 -12 4 -20 1 -19 -4 1 -6 -13 -12 -30 -13 -18 -1 -31 1 -28 3 3 3 -4 11
-15 19 -11 8 -20 21 -20 29 0 8 -5 14 -11 14 -5 0 -7 5 -4 10 3 6 1 10 -6 10
-7 0 -9 3 -6 6 4 4 -3 15 -15 25 -11 11 -17 19 -12 19 5 0 -3 8 -19 18 -15 10
-24 22 -20 25 3 4 1 7 -6 7 -7 0 -9 5 -6 10 3 6 1 10 -5 10 -6 0 -8 5 -5 10 3
6 0 10 -7 10 -7 0 -18 11 -25 25 -8 19 -8 24 0 19 7 -3 5 0 -4 8 -9 7 -14 19
-12 26 3 6 0 12 -5 12 -5 0 -10 6 -9 13 1 41 -4 77 -11 73 -5 -3 -8 5 -7 17 2
21 -22 76 -38 88 -8 6 -2 57 8 67 3 3 -3 14 -12 25 -13 15 -14 18 -3 12 12 -7
13 -6 3 7 -7 8 -9 19 -5 23 4 5 1 5 -5 1 -8 -4 -13 -1 -13 8 0 9 -5 16 -11 16
-7 0 -9 10 -7 25 3 14 1 25 -5 25 -6 0 -2 7 9 15 14 11 15 14 4 15 -10 0 -7 5
8 16 12 8 20 19 17 24 -3 5 4 7 15 5 14 -3 20 1 20 13 0 15 2 15 10 2 8 -13
11 -11 16 7 4 13 10 21 14 18 4 -3 13 2 20 10 10 12 10 15 -1 15 -9 1 -8 4 4
11 9 6 14 15 11 21 -4 6 0 14 7 19 8 4 14 14 14 21 1 7 6 12 13 11 7 -2 12 4
12 12 0 14 12 19 33 16 4 0 7 4 7 11 0 6 3 9 6 5 8 -7 34 17 34 32 0 6 5 11
11 11 5 0 7 -5 3 -12 -4 -7 -3 -8 5 -4 6 4 9 12 6 17 -4 5 -1 9 4 9 6 0 10 3
10 8 -4 23 2 42 12 36 8 -4 8 0 0 15 -7 12 -9 26 -6 31 3 6 1 10 -4 10 -6 0
-11 7 -11 16 0 8 -4 13 -9 10 -5 -3 -11 1 -15 9 -3 8 -15 15 -26 15 -11 0 -20
4 -20 8 0 4 -9 8 -20 8 -11 0 -20 -4 -20 -9 0 -4 -4 -5 -10 -2 -5 3 -10 1 -10
-5 0 -6 -5 -8 -12 -4 -8 5 -9 2 -5 -10 4 -9 3 -15 -2 -12 -5 3 -14 -1 -21 -9
-7 -8 -9 -15 -6 -15 4 0 1 -6 -6 -14 -7 -8 -17 -11 -23 -8 -5 3 -4 -1 3 -10 9
-12 10 -18 2 -23 -8 -5 -8 -11 1 -21 9 -11 9 -14 -1 -14 -7 0 -10 -7 -6 -15 3
-8 1 -15 -4 -15 -6 0 -9 -6 -7 -12 1 -7 -4 -12 -11 -10 -8 1 -11 -2 -7 -7 3
-6 -4 -15 -15 -21 -11 -6 -18 -15 -15 -21 4 -5 1 -9 -6 -9 -7 0 -9 -3 -6 -7 4
-3 -1 -15 -10 -26 -10 -11 -12 -17 -5 -13 19 11 14 -1 -11 -25 -12 -12 -15
-18 -7 -14 8 5 4 -4 -10 -20 -14 -16 -18 -24 -10 -19 8 4 4 -6 -10 -23 -14
-17 -28 -28 -32 -26 -5 2 -8 -3 -8 -12 0 -9 -4 -14 -8 -11 -10 6 -43 -30 -35
-38 3 -3 -2 -8 -11 -12 -9 -3 -13 -10 -10 -15 3 -5 0 -9 -6 -9 -6 0 -8 -5 -4
-11 4 -7 -3 -6 -17 2 -13 7 -28 12 -32 11 -5 -1 -7 1 -4 5 2 5 -5 17 -16 27
-20 19 -20 19 -14 0 7 -18 6 -18 -7 -1 -9 12 -16 15 -21 7 -5 -8 -11 -8 -19
-1 -7 6 -16 8 -19 4 -4 -3 -7 0 -7 8 0 11 -2 11 -10 -1 -6 -9 -10 -10 -10 -3
0 6 -9 11 -20 10 -11 -1 -20 -5 -20 -10 0 -5 -7 -1 -16 7 -8 9 -20 14 -25 11
-5 -4 -9 -1 -9 5 0 6 -4 8 -10 5 -5 -3 -10 -1 -10 5 0 6 -7 18 -15 26 -8 9
-15 13 -15 9 0 -4 -7 0 -15 9 -8 8 -15 20 -15 27 0 6 -8 18 -17 26 -10 8 -12
11 -5 8 11 -6 11 -3 0 14 -7 12 -16 21 -21 21 -4 0 -5 5 -2 10 7 12 -16 70
-28 70 -5 0 -5 5 -1 12 4 6 3 8 -3 5 -6 -4 -19 3 -29 16 -19 21 -19 21 1 8 11
-7 8 -2 -7 12 -16 14 -28 28 -28 31 0 3 -13 19 -30 34 -16 16 -27 32 -23 35 3
4 -1 7 -10 7 -9 0 -17 7 -17 16 0 8 -4 13 -8 10 -4 -2 -14 4 -21 16 -7 11 -8
17 -2 13 6 -3 11 -1 11 5 0 6 5 8 11 5 6 -4 17 1 25 11 9 11 12 12 8 4 -4 -9
-3 -12 2 -7 13 12 13 70 0 86 -8 11 -8 13 2 7 7 -4 12 -2 12 7 0 8 10 25 23
38 25 28 30 85 9 98 -8 5 -13 11 -13 15 3 20 0 26 -9 21 -5 -3 -16 -3 -22 2
-19 11 -68 13 -68 2 0 -5 -7 -9 -15 -9 -9 0 -18 -7 -21 -15 -4 -8 -10 -13 -14
-10 -4 3 -10 -2 -14 -10 -10 -26 -47 -16 -87 25 -21 21 -39 36 -39 32 0 -4 -4
-1 -9 7 -5 7 -22 13 -37 13 -16 0 -38 7 -49 14 -11 8 -16 14 -11 14 5 0 -6 15
-25 33 -43 42 -75 51 -92 28 -17 -24 -47 -34 -47 -16 0 7 -8 16 -17 19 -19 6
-28 66 -11 66 5 0 1 11 -7 24 -11 17 -13 26 -5 31 8 5 8 11 -1 21 -6 8 -8 14
-3 14 5 0 2 5 -6 10 -13 9 -13 10 0 10 8 1 4 6 -10 12 -14 6 -28 10 -32 10 -5
-1 -8 2 -8 6 0 4 -9 8 -19 8 -11 0 -19 -3 -18 -6 1 -3 -2 -5 -6 -5 -13 0 -39
-68 -33 -87 2 -10 0 -18 -5 -18 -4 0 -6 -7 -3 -15 4 -8 11 -12 18 -8 6 4 5 -1
-2 -10 -8 -9 -10 -22 -6 -29 13 -21 13 -39 1 -31 -7 4 -6 -1 2 -10 9 -11 10
-17 2 -17 -6 0 -11 -14 -11 -32 0 -17 -3 -28 -7 -25 -3 4 -16 -4 -29 -18 -17
-19 -23 -21 -28 -10 -3 8 -1 15 5 15 6 0 8 7 5 16 -3 8 -2 13 3 10 9 -6 26 22
23 37 -1 4 4 7 11 7 8 0 7 4 -3 10 -8 5 -10 10 -4 10 17 0 12 30 -5 30 -14 0
-14 2 -1 10 11 7 11 10 2 10 -7 0 -10 4 -7 10 3 5 -3 15 -14 21 -11 8 -17 19
-13 28 3 9 2 13 -2 10 -8 -7 -54 32 -50 41 1 3 -13 5 -31 5 -18 0 -31 -3 -28
-7 2 -5 -1 -8 -7 -8 -6 0 -24 -14 -40 -30 -17 -17 -30 -27 -30 -22 0 26 -44
52 -70 42 -19 -7 -40 -7 -40 1 0 5 -5 9 -11 9 -5 0 -7 -4 -4 -10 3 -5 -1 -10
-9 -10 -8 0 -20 -9 -26 -20 -7 -12 -16 -17 -27 -13 -10 4 -14 2 -10 -4 4 -6
-3 -8 -18 -5 -23 4 -30 13 -26 35 0 4 -5 6 -11 5 -7 -2 -12 3 -10 10 1 6 -3
11 -10 10 -7 -2 -13 3 -14 10 -1 6 -2 13 -4 15 -7 8 -5 47 2 47 5 0 6 5 3 10
-3 6 1 10 10 10 9 0 13 4 10 10 -3 5 3 19 14 31 11 12 18 26 15 31 -3 4 0 8 7
8 7 0 9 3 6 7 -4 3 0 14 9 24 9 10 14 25 11 33 -4 9 0 22 8 30 11 11 12 16 2
19 -7 3 -8 6 -1 6 14 1 6 51 -8 51 -5 0 -6 6 -3 13 4 6 -1 3 -9 -7 -15 -19
-16 -19 -16 -1 0 18 -1 18 -19 -2 -23 -24 -56 -85 -53 -96 1 -5 -2 -6 -8 -2
-5 3 -10 -1 -10 -9 0 -10 -6 -13 -17 -9 -11 4 -14 3 -9 -5 4 -7 2 -12 -3 -12
-6 0 -10 -3 -9 -7 5 -15 -24 -73 -34 -67 -5 3 -16 0 -25 -8 -14 -11 -16 -11
-9 1 6 8 0 7 -18 -4 -14 -10 -26 -21 -26 -26 0 -5 -5 -8 -12 -7 -7 2 -13 -3
-14 -9 -1 -7 -2 -18 -3 -23 0 -6 -6 -9 -13 -8 -7 2 -12 -3 -13 -11 0 -16 -43
-23 -52 -8 -4 6 -1 7 7 2 9 -5 11 -4 6 4 -4 6 -12 9 -17 6 -15 -10 -49 5 -49
21 0 8 -4 12 -10 9 -5 -3 -10 2 -10 12 -1 18 -30 65 -30 48 0 -5 -7 0 -16 11
-8 10 -12 12 -8 4 7 -13 6 -13 -10 -1 -14 12 -19 12 -26 2 -6 -11 -9 -11 -13
0 -4 10 -6 8 -6 -4 -1 -11 -6 -15 -12 -11 -6 3 -15 0 -20 -7 -6 -10 -9 -8 -9
9 0 16 -4 21 -12 16 -9 -5 -9 -2 1 9 9 12 10 17 2 17 -9 0 -9 5 0 21 6 12 7
19 1 15 -6 -3 -10 6 -9 22 0 56 -2 68 -13 52 -8 -13 -10 -13 -10 0 0 8 -10 24
-23 35 -12 11 -31 33 -40 48 -10 16 -24 26 -30 24 -7 -2 -24 0 -40 4 -17 5
-25 4 -21 -2 3 -6 -11 -7 -37 -3 -29 5 -40 4 -36 -4 5 -6 0 -8 -13 -5 -11 3
-20 0 -20 -6 0 -6 -3 -10 -7 -10 -20 3 -34 -2 -28 -10 3 -6 -1 -13 -9 -18 -8
-4 -16 -19 -18 -33 -4 -32 -17 -41 -41 -28 -14 7 -17 7 -13 -1 9 -13 -4 -14
-24 -1 -9 6 -17 5 -21 -2 -4 -6 -13 -9 -20 -6 -8 3 -18 6 -24 8 -5 1 -18 6
-27 11 -10 6 -19 5 -23 -1 -4 -6 -11 -8 -16 -4 -5 3 -7 9 -5 13 3 3 -4 8 -15
9 -10 1 -27 3 -38 4 -12 2 -17 8 -13 17 4 10 1 12 -8 6 -10 -6 -12 -4 -7 9 4
9 3 15 -2 12 -5 -3 -23 8 -41 24 -18 16 -36 27 -41 24 -5 -3 -9 0 -9 6 0 6 -4
8 -10 5 -5 -3 -10 -2 -10 2 0 5 -13 8 -30 7 -16 -1 -30 2 -30 7 0 4 -13 6 -30
4 -16 -2 -33 1 -36 7 -5 7 -12 4 -21 -7 -9 -14 -13 -15 -13 -4 -1 11 -4 10
-14 -3 -7 -10 -16 -15 -19 -11 -4 3 -13 1 -20 -5 -8 -7 -18 -8 -22 -4 -5 4 -5
-1 -2 -11 4 -11 3 -16 -3 -12 -6 3 -10 1 -10 -4 0 -6 -6 -10 -12 -8 -7 1 -12
-6 -12 -15 1 -10 -2 -15 -7 -12 -5 3 -9 0 -9 -6 0 -6 -4 -8 -10 -5 -5 3 -10 1
-10 -5 0 -7 -7 -10 -15 -6 -8 3 -15 1 -15 -4 0 -5 -6 -7 -14 -4 -8 3 -24 0
-36 -6 -17 -9 -21 -9 -15 0 5 8 1 11 -11 8 -11 -2 -25 3 -32 12 -8 8 -11 9 -7
2 9 -18 -37 -11 -61 8 -11 9 -15 10 -10 3 4 -7 2 -13 -3 -13 -6 0 -11 4 -11 9
0 6 -9 8 -20 6 -11 -2 -22 0 -25 5 -3 5 -17 7 -31 4 -18 -3 -23 -1 -18 7 4 8
3 9 -5 5 -6 -4 -17 -4 -24 2 -7 5 -33 15 -59 22 -26 7 -46 15 -44 19 2 3 -2
12 -10 19 -8 7 -14 10 -14 6 0 -3 -8 0 -17 7 -11 9 -14 10 -9 2 5 -9 2 -11 -8
-7 -9 3 -13 11 -9 17 4 6 1 7 -7 2 -7 -4 -16 -2 -21 6 -7 12 -9 11 -9 -1 0
-13 -1 -13 -10 0 -7 11 -10 11 -10 2 0 -7 -5 -10 -10 -7 -6 4 -27 9 -48 11
-20 3 -49 11 -63 18 -21 10 -30 11 -40 2 -9 -8 -10 -8 -4 3 6 11 4 13 -8 8 -9
-3 -18 -1 -21 6 -4 9 -8 9 -11 1 -3 -6 -20 -10 -37 -8 -18 2 -35 -1 -40 -8 -6
-10 -8 -9 -8 2 0 9 -3 11 -8 5 -4 -5 -18 -16 -31 -23 -19 -11 -22 -11 -16 0 3
7 -2 4 -12 -7 -18 -19 -35 -27 -60 -28 -7 0 -13 -4 -13 -9 0 -5 -11 -13 -25
-20 -13 -6 -22 -15 -18 -21 3 -5 -3 -6 -16 -2 -14 4 -21 2 -21 -7 0 -10 -3 -9
-10 2 -5 8 -10 10 -10 5 0 -6 -9 -11 -19 -11 -11 0 -18 3 -15 7 2 4 -5 11 -17
14 -12 4 -18 12 -15 20 3 10 0 12 -12 8 -9 -3 -14 -3 -10 2 4 4 1 14 -7 22
-10 10 -12 20 -6 31 5 9 7 27 5 40 -3 14 0 21 6 17 5 -3 10 1 10 10 0 19 20
56 39 71 11 8 11 13 2 18 -8 5 -9 12 -2 20 7 8 7 23 2 42 -5 16 -10 25 -10 20
-1 -6 -8 -1 -17 10 -8 10 -12 12 -8 4 6 -12 4 -13 -7 -2 -7 6 -19 12 -27 12
-8 0 -10 -5 -6 -12 6 -10 4 -10 -7 -2 -11 9 -20 6 -41 -16z m5680 -3559 c61
-33 88 -119 96 -303 l4 -78 -37 -1 c-208 -3 -264 -3 -278 2 -18 6 -20 38 -9
134 11 95 23 135 64 197 39 60 102 80 160 49z m-4274 -1227 c3 -8 2 -12 -4 -9
-6 3 -10 1 -10 -4 0 -6 6 -11 13 -11 13 0 20 -29 8 -31 -39 -9 -51 -5 -51 16
0 13 7 26 16 29 8 3 12 10 9 16 -3 5 -2 10 3 10 6 0 13 -7 16 -16z m-449
-1504 c3 -5 1 -10 -4 -10 -6 0 -11 5 -11 10 0 6 2 10 4 10 3 0 8 -4 11 -10z"/>
<path d="M2537 11930 c-6 -25 16 -46 30 -28 20 26 26 41 15 34 -7 -4 -12 -2
-12 3 0 19 -28 12 -33 -9z"/>
<path d="M2604 11356 c-6 -7 -17 -23 -24 -35 -10 -19 -10 -25 1 -32 8 -5 10
-9 6 -9 -14 0 16 -24 45 -37 24 -11 26 -10 21 5 -3 9 -3 14 2 10 10 -9 34 21
35 43 0 9 -7 20 -16 23 -8 3 -12 10 -9 16 3 5 -3 10 -14 10 -12 0 -21 5 -21
10 0 14 -13 12 -26 -4z"/>
<path d="M1510 10620 c0 -5 5 -10 10 -10 6 0 10 5 10 10 0 6 -4 10 -10 10 -5
0 -10 -4 -10 -10z"/>
<path d="M4633 9363 c-13 -2 -23 -9 -23 -14 0 -5 -6 -9 -14 -9 -17 0 -64 -54
-78 -89 -6 -14 -10 -47 -10 -72 -1 -160 203 -241 315 -126 31 31 70 108 59
117 -4 3 -7 16 -6 30 1 40 -15 76 -48 110 -49 52 -112 69 -195 53z"/>
<path d="M6329 9328 c-24 -9 -25 -38 -1 -39 112 -5 146 -15 182 -55 21 -24 30
-46 31 -72 7 -175 3 -1295 -4 -1322 -19 -75 -61 -97 -212 -109 -6 -1 -11 -10
-12 -21 -2 -20 3 -20 709 -18 623 3 711 5 713 18 18 114 31 210 41 290 2 19 6
45 8 57 3 11 8 43 12 70 3 26 8 56 10 66 2 12 -4 17 -21 17 -18 0 -26 -8 -36
-37 -64 -197 -185 -319 -364 -370 -76 -22 -338 -26 -380 -6 -59 28 -60 36 -60
372 l0 306 35 -1 c42 -1 99 -11 126 -21 56 -21 109 -93 155 -208 10 -25 22
-82 24 -115 2 -14 3 -28 4 -32 1 -8 28 -4 38 6 4 4 8 196 8 427 0 341 -2 420
-13 424 -19 7 -37 -7 -38 -30 -2 -20 -7 -51 -20 -110 -12 -56 -63 -152 -95
-179 -50 -43 -83 -55 -159 -62 l-71 -7 1 184 c0 101 0 189 -1 194 -1 6 -1 14
0 18 1 4 2 68 2 142 l1 134 172 -4 c196 -4 230 -8 300 -39 63 -28 108 -65 146
-120 31 -47 76 -170 79 -222 1 -6 11 -9 25 -7 l24 5 0 239 c0 131 -3 239 -7
240 -50 5 -1338 2 -1352 -3z"/>
<path d="M12228 9332 c-43 -3 -48 -6 -48 -27 0 -16 6 -24 18 -24 9 0 31 -2 47
-5 17 -2 35 -4 40 -5 6 -1 21 -17 35 -37 24 -36 24 -39 25 -275 0 -132 -1
-239 -2 -239 -2 0 -22 18 -43 39 -65 65 -135 93 -227 93 -82 0 -100 -3 -120
-15 -7 -5 -13 -6 -13 -2 0 14 -119 -57 -155 -92 -61 -59 -77 -82 -112 -153
-87 -179 -100 -390 -39 -605 1 -5 10 -27 19 -49 9 -21 17 -40 17 -42 0 -2 13
-22 29 -46 87 -126 195 -189 326 -190 110 -1 191 36 273 125 23 26 43 43 43
39 1 -4 2 -41 3 -82 l1 -75 30 1 c29 2 84 10 115 19 8 2 32 6 52 9 21 3 57 10
80 15 24 6 56 12 72 15 113 20 133 28 129 50 -3 16 -11 22 -26 21 -37 -3 -85
26 -99 59 -10 24 -13 189 -13 753 0 636 -2 723 -15 724 -68 2 -405 3 -442 1z
m-16 -618 c27 -14 98 -79 98 -90 0 -3 8 -16 18 -28 16 -21 17 -50 17 -327 l-1
-304 -26 -40 c-31 -49 -86 -100 -119 -111 -13 -4 -42 -9 -64 -10 -35 -2 -45 3
-80 40 -23 24 -48 65 -60 96 -21 59 -21 60 -32 135 -10 62 -9 374 1 435 12 80
45 158 81 196 31 33 112 37 167 8z"/>
<path d="M8720 8845 c-70 -18 -163 -74 -215 -130 -36 -39 -40 -36 -39 28 1 34
-2 67 -6 72 -5 6 -41 9 -82 8 -40 -2 -77 -3 -83 -3 -5 0 -70 1 -143 3 -74 1
-137 0 -141 -3 -12 -9 -7 -33 9 -41 8 -4 29 -13 47 -19 57 -21 58 -30 58 -512
0 -427 0 -437 -21 -465 -11 -15 -39 -34 -60 -41 -29 -9 -40 -18 -40 -32 0 -19
8 -20 288 -20 276 0 288 1 288 19 0 13 -13 24 -41 35 -69 28 -71 38 -73 445
-1 350 -1 354 21 385 64 90 132 127 200 110 28 -7 41 -18 57 -49 20 -39 21
-54 21 -425 -1 -435 -1 -433 -74 -466 -27 -12 -39 -23 -38 -36 1 -17 17 -18
290 -18 l288 0 -3 23 c-2 12 -7 22 -13 23 -62 7 -90 28 -102 78 -3 11 -6 185
-8 386 -2 201 -4 365 -5 365 -1 0 -3 17 -5 38 -8 92 -101 210 -186 236 -58 18
-133 20 -189 6z"/>
<path d="M11249 8845 c-93 -33 -173 -101 -249 -213 -19 -28 -38 -52 -41 -52
-3 0 -5 54 -5 120 1 72 -3 121 -9 123 -8 2 -423 0 -447 -2 -5 -1 -8 -10 -8
-21 0 -21 4 -24 53 -34 32 -7 58 -35 66 -68 2 -13 5 -214 5 -448 0 -385 -1
-428 -17 -457 -18 -35 -41 -51 -79 -56 -14 -3 -24 -12 -26 -25 l-3 -22 304 0
c246 0 306 3 310 13 8 20 -4 32 -36 35 -46 5 -75 20 -94 48 -16 25 -18 54 -17
278 1 231 3 276 18 345 25 115 86 201 146 206 27 2 44 -5 75 -30 22 -17 50
-37 63 -44 27 -14 102 -20 102 -8 0 4 5 5 10 2 6 -4 26 10 45 30 44 46 57 107
42 187 -9 41 -64 97 -100 100 -12 0 -33 2 -47 3 -14 1 -41 -4 -61 -10z"/>
<path d="M13395 8853 c-154 -27 -218 -56 -300 -137 -89 -89 -125 -176 -119
-295 6 -134 94 -256 231 -321 l71 -34 -61 -30 c-78 -38 -168 -129 -187 -187
-35 -111 -4 -203 91 -266 21 -14 39 -30 39 -35 0 -5 -4 -7 -8 -4 -5 3 -37 -9
-72 -27 -48 -24 -70 -42 -86 -71 -51 -90 5 -188 135 -237 64 -24 63 -24 191
-42 139 -19 301 -14 415 14 22 5 45 11 50 12 6 1 15 5 20 9 6 3 25 9 43 13 17
3 32 11 32 16 0 5 7 9 15 9 16 0 50 26 97 74 106 109 110 304 9 402 -70 68
-134 88 -326 100 -55 3 -102 6 -105 6 -3 0 -9 -1 -15 -2 -20 -4 -210 -1 -232
4 -62 13 -98 67 -81 120 14 40 43 73 77 84 14 5 75 8 135 7 148 -3 242 23 353
98 64 43 133 135 149 200 1 4 3 8 4 10 1 1 3 31 4 67 3 82 -13 138 -58 206
-20 30 -36 55 -36 57 0 2 42 3 93 2 50 -1 97 0 102 2 8 3 11 46 6 118 -1 12
-35 15 -203 18 -153 2 -217 7 -258 20 -53 16 -174 27 -215 20z m180 -116 c33
-38 53 -90 62 -161 8 -66 9 -218 2 -261 -4 -22 -10 -55 -12 -73 -18 -114 -139
-174 -226 -113 -37 26 -56 61 -72 127 -15 62 -19 225 -6 242 6 7 6 12 0 12
-11 0 1 93 19 150 25 81 79 120 157 116 38 -2 50 -9 76 -39z m110 -1221 c89
-7 108 -11 145 -32 71 -43 58 -144 -25 -188 -62 -32 -103 -44 -184 -51 -25 -2
-47 -5 -48 -5 -10 -5 -92 -2 -101 4 -6 3 -13 2 -17 -4 -4 -6 -10 -8 -15 -5 -5
3 -28 8 -52 11 -110 14 -188 64 -205 134 -19 73 36 126 143 138 71 7 236 7
359 -2z"/>
<path d="M4387 8803 c-4 -19 1 -24 32 -29 54 -9 79 -30 91 -74 15 -55 19 -318
5 -324 -6 -3 -6 -5 0 -5 15 -1 11 -517 -4 -562 -11 -34 -50 -66 -87 -72 -30
-4 -44 -16 -37 -32 4 -13 51 -15 310 -15 l304 0 -3 22 c-2 13 -12 22 -27 25
-46 7 -89 34 -97 61 -4 15 -9 246 -10 514 -1 268 -4 493 -7 500 -3 9 -25 12
-78 10 -41 -1 -78 -2 -84 -2 -5 0 -76 1 -157 3 -145 2 -147 2 -151 -20z"/>
<path d="M14144 8821 c-13 -14 0 -43 27 -56 40 -21 79 -56 79 -71 0 -7 4 -14
9 -16 13 -5 82 -154 231 -498 73 -168 143 -329 156 -358 13 -29 36 -80 50
-115 l26 -62 -22 -67 c-12 -38 -26 -71 -31 -74 -5 -3 -9 -12 -9 -21 0 -9 -15
-45 -32 -80 -33 -65 -86 -123 -113 -123 -17 0 -38 36 -41 70 -10 122 -59 173
-152 160 -105 -15 -160 -123 -117 -228 35 -82 104 -124 204 -125 80 0 140 24
193 77 55 55 89 123 199 399 45 111 82 207 84 212 1 6 7 24 14 40 6 17 19 50
28 75 10 25 19 47 22 50 4 3 7 12 9 20 3 15 14 45 90 240 100 259 116 298 138
348 13 29 24 56 24 60 0 20 65 83 93 90 23 6 31 14 32 33 2 21 -2 24 -37 24
-21 0 -38 -4 -38 -9 0 -5 -6 -4 -12 1 -7 5 -58 7 -113 6 -101 -3 -115 -3 -149
-2 -10 0 -23 -4 -28 -9 -14 -14 20 -42 51 -42 17 0 39 -11 56 -27 25 -26 27
-32 22 -93 -3 -36 -10 -76 -15 -90 -6 -14 -33 -86 -61 -160 -27 -74 -55 -148
-61 -165 -6 -16 -11 -31 -11 -33 1 -1 -5 -15 -13 -31 -9 -16 -12 -31 -9 -35 4
-3 1 -6 -5 -6 -7 0 -12 -10 -12 -22 0 -19 -2 -20 -13 -8 -7 8 -23 38 -35 65
-11 28 -31 73 -43 100 -12 28 -23 52 -24 55 -1 3 -8 21 -17 40 -103 228 -134
315 -129 355 3 27 38 55 67 55 16 0 28 8 33 23 5 12 7 24 5 26 -7 8 -124 6
-124 -2 0 -4 -5 -5 -12 -1 -17 11 -228 11 -228 1 0 -5 -5 -5 -12 -1 -12 8
-217 12 -224 5z"/>
</g>
</svg>
